<svg viewBox="0 0 192 192" xmlns="http://www.w3.org/2000/svg">
  <defs>
    <linearGradient id="gradient" x1="0%" y1="0%" x2="100%" y2="100%">
      <stop offset="0%" style="stop-color:#4682B4"/>
      <stop offset="100%" style="stop-color:#2F5F8F"/>
    </linearGradient>
  </defs>
  
  <!-- Background Circle -->
  <circle cx="96" cy="96" r="88" fill="url(#gradient)" stroke="#ffffff" stroke-width="8"/>
  
  <!-- Laboratory Flask -->
  <g transform="translate(96,96)">
    <!-- Flask Body -->
    <path d="M-25 20 L-35 50 Q-35 60 -25 60 L25 60 Q35 60 35 50 L25 20 Z" fill="#ffffff" opacity="0.9"/>
    
    <!-- Flask Neck -->
    <rect x="-8" y="-30" width="16" height="50" fill="#ffffff" opacity="0.9"/>
    
    <!-- Flask Top -->
    <rect x="-12" y="-35" width="24" height="8" rx="4" fill="#ffffff"/>
    
    <!-- Liquid -->
    <path d="M-20 25 L-30 45 Q-30 52 -20 52 L20 52 Q30 52 30 45 L20 25 Z" fill="#87CEEB" opacity="0.7"/>
    
    <!-- Bubbles -->
    <circle cx="-8" cy="35" r="3" fill="#ffffff" opacity="0.6"/>
    <circle cx="5" cy="42" r="2" fill="#ffffff" opacity="0.6"/>
    <circle cx="12" cy="30" r="2.5" fill="#ffffff" opacity="0.6"/>
    
    <!-- Text "LAB" -->
    <text x="0" y="-50" text-anchor="middle" font-family="Arial, sans-serif" font-size="16" font-weight="bold" fill="#ffffff">LAB</text>
  </g>
</svg>
